<svg xmlns="http://www.w3.org/2000/svg" viewBox="0 0 600 360"><defs><linearGradient id="w" x2="1" y2="1"><stop stop-color="#183743"/><stop offset="1" stop-color="#101718"/></linearGradient></defs><path fill="url(#w)" d="M0 0h600v360H0z"/><path d="M0 290h600v70H0z" fill="#202827"/><g fill="none" stroke-linecap="round" stroke-linejoin="round"><circle cx="187" cy="257" r="60" stroke="#a6bdc0" stroke-width="16"/><circle cx="422" cy="257" r="60" stroke="#a6bdc0" stroke-width="16"/><path d="m187 257 72-92h75l88 92m-235 0h132l-60-92m60 92 43-120h42" stroke="#70c9e8" stroke-width="15"/><path d="M278 137h70" stroke="#e7fe52" stroke-width="15"/></g><path d="m466 53 35 35-53 53-35-35zM397 122l-111 111" stroke="#f1a958" stroke-width="20" stroke-linecap="round"/><path d="m475 44 42-17-17 42zM276 241l-26 12 12-26z" fill="#f1a958"/></svg>
